<svg width="102" height="28" viewBox="0 0 102 28" fill="none" xmlns="http://www.w3.org/2000/svg">
<path fill-rule="evenodd" clip-rule="evenodd" d="M64 6C64 2.68629 66.6863 0 70 0H96C99.3137 0 102 2.68629 102 6V22C102 25.3137 99.3137 28 96 28H70C66.6863 28 64 25.3137 64 22V6ZM90.3174 22.374C85.4554 22.374 82.3534 19.008 82.3534 14.366C82.3534 9.45995 85.4774 6.22595 90.2734 6.22595C93.9034 6.22595 96.5654 7.83195 97.4234 11.792C97.4674 11.968 97.3794 12.078 97.2034 12.078H93.7054C93.5514 12.078 93.4414 11.99 93.4194 11.836C93.0234 10.164 91.9674 9.30595 90.2294 9.30595C87.8754 9.30595 86.5994 11.132 86.5994 14.278C86.5994 17.468 87.8974 19.294 90.2734 19.294C92.0554 19.294 93.1114 18.37 93.4634 16.61C93.4854 16.456 93.5954 16.368 93.7494 16.368H97.3134C97.4894 16.368 97.5774 16.478 97.5334 16.676C96.6754 20.636 94.0794 22.374 90.3174 22.374ZM69.1109 6.59998C68.9569 6.59998 68.8469 6.70998 68.8469 6.86398L69.0009 14.388L68.8469 21.736C68.8469 21.89 68.9569 22 69.1109 22H72.8069C72.9609 22 73.0709 21.89 73.0709 21.736L72.9829 16.94H75.2049C79.1429 16.94 81.4089 14.938 81.4089 11.682C81.4089 8.31598 79.2309 6.59998 75.2489 6.59998H69.1109ZM72.9389 14.036L73.0269 9.48198H75.0949C76.5689 9.48198 77.4489 10.208 77.4489 11.77C77.4489 13.398 76.4589 14.036 75.1829 14.036H72.9389Z" fill="#43C09B" style="fill:#43C09B;fill:color(display-p3 0.2636 0.7540 0.6069);fill-opacity:1;"/>
<path d="M55.6136 22.286C52.3576 22.286 49.9376 21.01 49.7176 18.502C49.6956 18.326 49.7836 18.238 49.9596 18.238H53.3036C53.4576 18.238 53.5456 18.326 53.5676 18.502C53.6996 19.426 54.3816 19.866 55.5476 19.866C56.6696 19.866 57.2196 19.514 57.2196 18.832C57.2196 17.028 49.9816 18.854 49.9816 14.168C49.9816 11.77 51.9836 10.384 55.0636 10.384C58.1216 10.384 60.1456 11.616 60.4976 13.926C60.5416 14.102 60.4316 14.212 60.2556 14.212H57.1096C56.9556 14.212 56.8676 14.124 56.8236 13.97C56.6476 13.222 56.1196 12.76 55.1296 12.76C54.2716 12.76 53.7436 13.046 53.7436 13.75C53.7436 15.686 60.9816 13.684 60.9816 18.458C60.9816 20.856 58.7376 22.286 55.6136 22.286Z" fill="white" style="fill:white;fill-opacity:1;"/>
<path d="M43.389 22.286C40.133 22.286 37.713 21.01 37.493 18.502C37.471 18.326 37.559 18.238 37.735 18.238H41.079C41.233 18.238 41.321 18.326 41.343 18.502C41.475 19.426 42.157 19.866 43.323 19.866C44.445 19.866 44.995 19.514 44.995 18.832C44.995 17.028 37.757 18.854 37.757 14.168C37.757 11.77 39.759 10.384 42.839 10.384C45.897 10.384 47.921 11.616 48.273 13.926C48.317 14.102 48.207 14.212 48.031 14.212H44.885C44.731 14.212 44.643 14.124 44.599 13.97C44.423 13.222 43.895 12.76 42.905 12.76C42.047 12.76 41.519 13.046 41.519 13.75C41.519 15.686 48.757 13.684 48.757 18.458C48.757 20.856 46.513 22.286 43.389 22.286Z" fill="white" style="fill:white;fill-opacity:1;"/>
<path d="M35.9341 6.6001C36.0881 6.6001 36.1981 6.7101 36.1981 6.8641V9.5261C36.1981 9.6801 36.0881 9.7901 35.9341 9.7901H32.4361C32.2821 9.7901 32.1721 9.6801 32.1721 9.5261V6.8641C32.1721 6.7101 32.2821 6.6001 32.4361 6.6001H35.9341ZM36.1321 16.4341L36.2201 21.7361C36.2201 21.8901 36.1101 22.0001 35.9561 22.0001H32.4361C32.2821 22.0001 32.1721 21.8901 32.1721 21.7361L32.2601 16.4341L32.1721 10.9341C32.1721 10.7801 32.2821 10.6701 32.4361 10.6701H35.9561C36.1101 10.6701 36.2201 10.7801 36.2201 10.9341L36.1321 16.4341Z" fill="white" style="fill:white;fill-opacity:1;"/>
<path d="M21.4244 21.7579C21.4024 21.9339 21.2924 21.9999 21.1384 21.9999H17.3104C17.1564 21.9999 17.0464 21.9119 17.0244 21.7579L14.6484 10.9559C14.6044 10.7579 14.7144 10.6699 14.8904 10.6699H18.2124C18.3664 10.6699 18.4544 10.7359 18.4764 10.9119L19.4664 18.1939L20.8524 10.9119C20.8744 10.7359 20.9844 10.6699 21.1384 10.6699H25.0324C25.1864 10.6699 25.2964 10.7359 25.3184 10.9119L26.6164 18.0399L27.6504 10.9119C27.6724 10.7359 27.7824 10.6699 27.9364 10.6699H30.9504C31.1264 10.6699 31.2364 10.7579 31.1924 10.9559L28.7724 21.7579C28.7504 21.9119 28.6404 21.9999 28.4864 21.9999H24.6364C24.4824 21.9999 24.3724 21.9119 24.3504 21.7579L22.7884 14.4979L21.4244 21.7579Z" fill="white" style="fill:white;fill-opacity:1;"/>
<path d="M7.24079 22.3961C3.06079 22.3961 0.354789 20.6141 0.00278944 17.1821C-0.0192106 17.0061 0.0907894 16.8961 0.266789 16.8961H3.91879C4.07279 16.8961 4.16079 16.9841 4.20479 17.1381C4.46879 18.6121 5.32679 19.4041 7.30679 19.4041C8.97879 19.4041 9.92479 18.9421 9.92479 17.8201C9.92479 14.8721 0.288789 17.3361 0.288789 11.0881C0.288789 8.14007 2.53279 6.22607 6.71279 6.22607C10.3428 6.22607 12.9608 7.56807 13.5328 10.8461C13.5548 11.0221 13.4668 11.1321 13.2908 11.1321H9.61679C9.46279 11.1321 9.37479 11.0441 9.35279 10.8901C9.15479 9.83407 8.23079 9.24007 6.66879 9.24007C5.34879 9.24007 4.38079 9.65807 4.38079 10.6701C4.38079 13.4421 14.0828 11.1101 14.0828 17.2481C14.0828 20.5481 11.5088 22.3961 7.24079 22.3961Z" fill="white" style="fill:white;fill-opacity:1;"/>
</svg>
