<svg width="17" height="17" viewBox="0 0 17 17" fill="none" xmlns="http://www.w3.org/2000/svg">
<path d="M8.86719 16.3281C7.76823 16.3281 6.73698 16.1198 5.77344 15.7031C4.8099 15.2917 3.96354 14.7214 3.23438 13.9922C2.50521 13.263 1.93229 12.4167 1.51562 11.4531C1.10417 10.4896 0.898438 9.45833 0.898438 8.35938C0.898438 7.26042 1.10417 6.22917 1.51562 5.26562C1.93229 4.30208 2.50521 3.45573 3.23438 2.72656C3.96354 1.99219 4.8099 1.41927 5.77344 1.00781C6.73698 0.596354 7.76823 0.390625 8.86719 0.390625C9.96615 0.390625 10.9974 0.596354 11.9609 1.00781C12.9245 1.41927 13.7708 1.99219 14.5 2.72656C15.2292 3.45573 15.7995 4.30208 16.2109 5.26562C16.6276 6.22917 16.8359 7.26042 16.8359 8.35938C16.8359 9.45833 16.6276 10.4896 16.2109 11.4531C15.7995 12.4167 15.2292 13.263 14.5 13.9922C13.7708 14.7214 12.9245 15.2917 11.9609 15.7031C10.9974 16.1198 9.96615 16.3281 8.86719 16.3281ZM8.86719 15C9.78385 15 10.6432 14.8281 11.4453 14.4844C12.2474 14.1406 12.9531 13.6641 13.5625 13.0547C14.1719 12.4453 14.6484 11.7396 14.9922 10.9375C15.3359 10.1354 15.5078 9.27604 15.5078 8.35938C15.5078 7.44271 15.3359 6.58333 14.9922 5.78125C14.6484 4.97396 14.1719 4.26823 13.5625 3.66406C12.9531 3.05469 12.2474 2.57812 11.4453 2.23438C10.6432 1.89062 9.78385 1.71875 8.86719 1.71875C7.95052 1.71875 7.09115 1.89062 6.28906 2.23438C5.48698 2.57812 4.78125 3.05469 4.17188 3.66406C3.5625 4.26823 3.08594 4.97396 2.74219 5.78125C2.39844 6.58333 2.22656 7.44271 2.22656 8.35938C2.22656 9.27604 2.39844 10.1354 2.74219 10.9375C3.08594 11.7396 3.5625 12.4453 4.17188 13.0547C4.78125 13.6641 5.48698 14.1406 6.28906 14.4844C7.09115 14.8281 7.95052 15 8.86719 15ZM8.71094 9.97656C8.29427 9.97656 8.08594 9.77083 8.08594 9.35938C8.08594 9.34375 8.08594 9.32812 8.08594 9.3125C8.08594 9.29167 8.08594 9.27344 8.08594 9.25781C8.08594 8.8724 8.17708 8.5625 8.35938 8.32812C8.54688 8.09375 8.78125 7.88021 9.0625 7.6875C9.40625 7.44792 9.66146 7.24479 9.82812 7.07812C9.99479 6.90625 10.0781 6.6875 10.0781 6.42188C10.0781 6.125 9.97135 5.88542 9.75781 5.70312C9.54427 5.51562 9.25781 5.42188 8.89844 5.42188C8.72656 5.42188 8.5651 5.45052 8.41406 5.50781C8.26823 5.5651 8.13542 5.64844 8.01562 5.75781C7.89583 5.86198 7.78906 5.98958 7.69531 6.14062L7.55469 6.32812C7.48698 6.42188 7.40625 6.4974 7.3125 6.55469C7.22396 6.61198 7.11458 6.64062 6.98438 6.64062C6.85417 6.64062 6.73177 6.59635 6.61719 6.50781C6.5026 6.41406 6.44531 6.27865 6.44531 6.10156C6.44531 6.03385 6.45052 5.96875 6.46094 5.90625C6.47135 5.84375 6.48698 5.78125 6.50781 5.71875C6.61719 5.35938 6.88281 5.04427 7.30469 4.77344C7.73177 4.4974 8.28125 4.35938 8.95312 4.35938C9.39583 4.35938 9.80469 4.4375 10.1797 4.59375C10.5547 4.74479 10.8568 4.96875 11.0859 5.26562C11.3203 5.5625 11.4375 5.92708 11.4375 6.35938C11.4375 6.82812 11.3151 7.19792 11.0703 7.46875C10.8255 7.73958 10.5156 8 10.1406 8.25C9.86458 8.43229 9.66146 8.60417 9.53125 8.76562C9.40104 8.92188 9.33594 9.10938 9.33594 9.32812C9.33594 9.33854 9.33594 9.35417 9.33594 9.375C9.33594 9.39062 9.33594 9.40625 9.33594 9.42188C9.33594 9.57292 9.27865 9.70312 9.16406 9.8125C9.05469 9.92188 8.90365 9.97656 8.71094 9.97656ZM8.6875 12.3047C8.46354 12.3047 8.26823 12.2266 8.10156 12.0703C7.9349 11.9089 7.85156 11.7161 7.85156 11.4922C7.85156 11.2682 7.93229 11.0781 8.09375 10.9219C8.26042 10.7604 8.45833 10.6797 8.6875 10.6797C8.91667 10.6797 9.11458 10.7578 9.28125 10.9141C9.44792 11.0703 9.53125 11.263 9.53125 11.4922C9.53125 11.7214 9.44792 11.9141 9.28125 12.0703C9.11458 12.2266 8.91667 12.3047 8.6875 12.3047Z" fill="#2A203A" style="fill:#2A203A;fill:color(display-p3 0.1635 0.1246 0.2261);fill-opacity:1;"/>
</svg>
