<svg width="24" height="24" viewBox="0 0 24 24" fill="none" xmlns="http://www.w3.org/2000/svg">
<path fill-rule="evenodd" clip-rule="evenodd" d="M24 12C24 18.6274 18.6274 24 12 24C5.37258 24 0 18.6274 0 12C0 5.37258 5.37258 0 12 0C18.6274 0 24 5.37258 24 12ZM8.8743 17.6828C9.80949 18.196 10.8844 18.4884 12.0286 18.4884C15.6326 18.4884 18.5539 15.5895 18.5539 12.0134C18.5539 8.43736 15.6324 5.53846 12.0287 5.53846C8.42458 5.53846 5.50307 8.43736 5.50307 12.0134C5.50307 13.2366 5.84528 14.3809 6.4393 15.3567L5.2616 18.8308L8.8743 17.6828ZM6.54238 12.0134C6.54238 9.01174 9.00323 6.56965 12.0286 6.56965C15.0534 6.56965 17.5147 9.01189 17.5147 12.0136C17.5147 15.0153 15.0534 17.4572 12.0286 17.4572C10.9142 17.4572 9.87654 17.1255 9.01017 16.5567L6.90202 17.2268L7.58731 15.2052C6.93067 14.3077 6.54238 13.2046 6.54238 12.0134ZM15.1041 13.3617C15.2157 13.4153 15.2912 13.4515 15.3236 13.5047C15.3633 13.5709 15.3633 13.8887 15.2302 14.2595C15.0966 14.6301 14.4435 14.9875 14.1506 15.014C14.1003 15.0185 14.0587 15.0285 14.016 15.0387C13.8095 15.0881 13.5786 15.1435 12.2308 14.617C10.7282 14.0297 9.73767 12.5719 9.53297 12.2706C9.51616 12.2459 9.50466 12.229 9.49859 12.2209L9.49833 12.2206C9.41716 12.1136 8.8455 11.3598 8.8455 10.5796C8.8455 9.84901 9.20716 9.46583 9.37371 9.28938C9.38516 9.27725 9.39568 9.2661 9.4051 9.25587C9.55176 9.09711 9.72515 9.05738 9.83179 9.05738C9.88688 9.05738 9.94197 9.06092 9.99523 9.06435C10.0451 9.06756 10.0933 9.07067 10.1384 9.07067C10.1496 9.07067 10.1613 9.06991 10.1736 9.06912C10.2637 9.06332 10.3809 9.05578 10.4982 9.33533C10.5408 9.43712 10.6027 9.58641 10.6683 9.74495C10.8077 10.0814 10.9643 10.4596 10.9915 10.5135C11.0315 10.5931 11.0582 10.6857 11.0048 10.7916C10.997 10.8071 10.9898 10.8217 10.9829 10.8357C10.9427 10.9175 10.9133 10.9772 10.845 11.0564C10.818 11.0875 10.7902 11.1211 10.7624 11.1547C10.7075 11.2209 10.6527 11.2871 10.605 11.3343C10.5249 11.4134 10.4415 11.4992 10.5348 11.6579C10.628 11.817 10.9491 12.3363 11.4245 12.7569C11.936 13.2094 12.3804 13.4006 12.6054 13.4975C12.6493 13.5163 12.6848 13.5316 12.7109 13.5446C12.8709 13.624 12.964 13.6107 13.0574 13.5047C13.1509 13.3988 13.4575 13.0415 13.564 12.8826C13.6705 12.7237 13.7772 12.7504 13.924 12.8033C14.0704 12.856 14.857 13.2402 15.0171 13.3195C15.0481 13.3349 15.0772 13.3488 15.1041 13.3617Z" fill="#2A203A" style="fill:#2A203A;fill:color(display-p3 0.1635 0.1246 0.2261);fill-opacity:1;"/>
</svg>
